<svg id="Layer_1" data-name="Layer 1" xmlns="http://www.w3.org/2000/svg" viewBox="0 0 38.79 48.04"><title>archimedes</title><path d="M31.85,4.9a2.23,2.23,0,0,1,1.83.3,9.52,9.52,0,0,0,3,1.21,5.13,5.13,0,0,0,3.82-.67,1,1,0,0,1,.39,0c0,.13,0,.29-.1.39a21.28,21.28,0,0,1-3,3.6c.38.58.73,1.18,1.16,1.73a3.24,3.24,0,0,0,1.8,1.09c.12,0,.22.16.32.24-.11.08-.21.21-.33.23-.56.12-1.13.22-1.76.33.14.34.27.66.41,1a6,6,0,0,0,1.72,2.56c.07,0,.13.2.11.22a.67.67,0,0,1-.33.2,3.3,3.3,0,0,1-1.92-.38l-.24-.11a4.1,4.1,0,0,1-1.07,2.5,12.44,12.44,0,0,1,1.22-.46,2.62,2.62,0,0,1,1-.09.86.86,0,0,1,.79,1.19A8.51,8.51,0,0,1,40.2,21a6.94,6.94,0,0,0-.63,2.58c0,.93-.14,1.85-.22,2.79,0,0,0,0,.07,0a1.85,1.85,0,0,1,1.82.74,18.11,18.11,0,0,1,2.5,4.16,5.68,5.68,0,0,1,.55,1.47,1.65,1.65,0,0,1-1.5,2v.75a1.85,1.85,0,0,1,1.93.43,2,2,0,0,1,.46,1.62A2.11,2.11,0,0,1,43,39.42a1.92,1.92,0,0,1-1.5-2.48c-.54-.18-.68-.12-1.06.27s-.56.45-.83.69a2.17,2.17,0,0,0-.51.54,3.17,3.17,0,0,0-.25,2.43c0,.1,0,.31,0,.32a.4.4,0,0,1-.36,0c-.38-.36-.73-.74-1.1-1.12l-.51,1a9.39,9.39,0,0,1-5.08,4.6,5,5,0,0,1-2.76.15.46.46,0,0,1-.29-.22s.11-.19.19-.27.25-.18.34-.25l-1.34-.35a.4.4,0,0,0-.26,0c-.71.34-1.44.68-2.14,1.06A5.16,5.16,0,0,0,23,48.91c-.12.36-.22.4-.53.16a5.34,5.34,0,0,1-1.4-2,1.31,1.31,0,0,0-.58,1.16c0,.24-.08.39-.34.23a7.29,7.29,0,0,1-3-3.28,10.44,10.44,0,0,1-.39-1.51c-.44.29-.9.62-1.38.91a8.18,8.18,0,0,1-.95.44.4.4,0,0,1-.29-.07.23.23,0,0,1,0-.21c.54-.64.26-1.29,0-1.91a8,8,0,0,0-.74-1.26,5,5,0,0,1-.78-2.11c0-.25-.12-.34-.38-.35a1.17,1.17,0,0,0-1.22.54,1.76,1.76,0,0,0-.13.57c0,.12-.07.23-.11.35-.11-.08-.28-.14-.31-.24-.33-1-.63-1.93-.94-2.89v0a1.47,1.47,0,0,0-1.15-1.57,3.42,3.42,0,0,1-1.78-4.18,2.54,2.54,0,0,1,1.07-1.13.48.48,0,0,0,.23-.33,3.21,3.21,0,0,1,2.52-3.29s.05,0,0,0c.08-.72.17-1.36.24-2a4.86,4.86,0,0,0-.53-2.3c-.3-.72-.59-1.45-.83-2.19a1.37,1.37,0,0,1,.42-1.41.93.93,0,0,0,.27-.81,5.8,5.8,0,0,1,1.14-4s.07-.11.14-.21c-.46.1-.86.2-1.26.26a2.75,2.75,0,0,1-2.17-.44,1.28,1.28,0,0,1-.28-.29.42.42,0,0,1,0-.29c0-.06.16-.1.24-.09a1.56,1.56,0,0,0,1.14-.32,7.09,7.09,0,0,0,2.15-1.93l-.67.23a1.63,1.63,0,0,1-1.76-.61c-.13-.2-.21-.45.11-.5a3.49,3.49,0,0,0,1.91-1.29c.95-1,1.84-1.94,2.79-2.89A7,7,0,0,1,17.5,3.78a6.54,6.54,0,0,1,3.84.43,1.51,1.51,0,0,0,.34.11L21,2.67c0-.07-.07-.13-.06-.19a3.14,3.14,0,0,1,.08-.4,1.15,1.15,0,0,1,.35.18c.37.41.68.88,1.08,1.25a4.14,4.14,0,0,0,1,.56c.3.15.37,0,.44-.29.16-.76.36-1.52.58-2.26,0-.14.22-.23.33-.34A1.77,1.77,0,0,1,25,1.6a4.58,4.58,0,0,0,.4,2.13.6.6,0,0,0,.09.13L27,3.3a15.85,15.85,0,0,1,4.06-.45c.54,0,1.08-.11,1.62-.14a1.28,1.28,0,0,1,.33.06.83.83,0,0,1-.09.36c-.38.57-.78,1.12-1.18,1.68ZM26.37,24.57c-.05-.16-.11-.32-.17-.48a6.49,6.49,0,0,1-.67-3,3.8,3.8,0,0,1,.52-2c.07-.1.26-.12.39-.18a1.67,1.67,0,0,1,0,.39c-.11.38-.29.73-.37,1.11a5.43,5.43,0,0,0,.44,3.2c.24.62.77,1.29.08,2a3.61,3.61,0,0,0-.25.3,1.18,1.18,0,0,1-.19-.37,1.67,1.67,0,0,0-3-.88,1.56,1.56,0,0,0-.3,1.59,1,1,0,0,0,1.13.56c.09,0,.19,0,.28,0a2.62,2.62,0,0,1,2.28.93s.06.05.08.08a.93.93,0,0,0,1.12.19.91.91,0,0,0,.56-.95,3.38,3.38,0,0,0-.09-.84,8.64,8.64,0,0,1,.08-4.65A2.78,2.78,0,0,0,28,19.22a3.45,3.45,0,0,1-.14-.34l.11-.1a2.16,2.16,0,0,1,.4.32,2.46,2.46,0,0,1,.44,2c-.11.59-.25,1.17-.33,1.76s-.09,1.21-.14,1.84a5.4,5.4,0,0,1,.81-.37,1,1,0,0,1,1.09.47,1.2,1.2,0,0,1,.17,1.33c-.16.29-.37.55-.57.85a4.56,4.56,0,0,1,1.75,2.26c.2.59.34,1.19.51,1.79.09.36,0,.51-.37.4A8.25,8.25,0,0,1,30.32,31c-.44-.21-.83,0-.79.46.07.92.19,1.83.29,2.74a2.88,2.88,0,0,1-.29,2c-.05.07,0,.21,0,.31A12,12,0,0,1,30,38.19c.06.76,0,1.54-.05,2.31,0,.54,0,1.08,0,1.61l.18,0,1.27-1.79c-.58-.31-1-.69-1-1.28a31.76,31.76,0,0,1,.23-3.64c.12-.88.76-1.18,1.59-.91l1.58-1.74a1.36,1.36,0,0,1,1.9-.11,4,4,0,0,1,.43.53l.59-.45-1-2.91.15-.05,1.23,2.67c.59,0,1.13-.08,1.66-.14.09,0,.25-.14.25-.21a2.92,2.92,0,0,0-.11-.94c-.32-.89-.69-1.76-1-2.64a13.63,13.63,0,0,1-1-3.64h-.07c-1.08.81-2.15,1.63-3.24,2.43-.07.06-.21,0-.32.05s0-.25,0-.32a1.85,1.85,0,0,1,.41-.38c.79-.57,1.6-1.11,2.36-1.72a2.65,2.65,0,0,0,.82-1,3,3,0,0,0-.42-3.09,3.25,3.25,0,0,1-.55-1.67,4.65,4.65,0,0,1,.51-2.35,2.22,2.22,0,0,0-.12-2.35.5.5,0,0,0-.53-.27,8.14,8.14,0,0,1-4.53-.8,3.8,3.8,0,0,0-2.32-.37,3,3,0,0,1-3.05-1.3s0,0-.11-.06a5.89,5.89,0,0,1-1.11,2.34.94.94,0,0,0,0,.75c.05.12.38.18.57.16.36-.05.8,0,.87-.58a1.22,1.22,0,0,1,.29,1.09c-.14,1.33-1.21,1.93-2.12,2.67.23.25.45.49.65.74.07.08.17.25.13.31-.27.42-.48,1-.88,1.21a4.52,4.52,0,0,1-5.24-.63c-.23-.22-.23-.41,0-.6l.46-.33a10.74,10.74,0,0,1-1-.68c-.11-.08-.12-.29-.18-.44a3.45,3.45,0,0,1,.42-.14,10.21,10.21,0,0,0,1.27-.19,9.16,9.16,0,0,0,2.72-1.5c.47-.36.89-.79,1.33-1.19l-.07-.11a3.92,3.92,0,0,1-3,.3,2.58,2.58,0,0,1-2.66,1,1.4,1.4,0,0,1-.5,1.29A6.14,6.14,0,0,1,14.84,19a2.15,2.15,0,0,0-1.58,1.42,1.49,1.49,0,0,0,.4,1.87,4.63,4.63,0,0,0,1.65,1c.93.32,1.85.67,2.75,1.06A2.28,2.28,0,0,1,19.48,26c0,.14-.09.3-.14.45-.08-.11-.2-.21-.23-.33a2.06,2.06,0,0,0-1.17-1.47c-1.17-.5-2.37-1-3.63-1.44a5.68,5.68,0,0,1-1.36,4l.34.18A3.2,3.2,0,0,1,15,29.33c.17.63-.13,1-.79,1a9.14,9.14,0,0,1-1.36-.21c-.41-.07-.81-.18-1.23-.25-.1,0-.3,0-.32.09a.43.43,0,0,0,.08.36,2.47,2.47,0,0,0,.53.49,1.78,1.78,0,0,1,.85,1.79A1.71,1.71,0,0,1,11.23,34l-.37.07.68.56c.59.46.58,1-.06,1.39a2.78,2.78,0,0,1-.86.32,6.37,6.37,0,0,1-.8.06,10.42,10.42,0,0,0,.77,3.17,1.75,1.75,0,0,1,1.89-.82c.16-.6.32-1.14.44-1.69a1,1,0,0,0,0-.57,3,3,0,0,1,.43-3.24,1.73,1.73,0,0,1,2.25-.67c.26-.44.51-.88.78-1.31a2.54,2.54,0,0,0,.2-2.55,1,1,0,0,1,0-.38c.52.21.58.42.69,2.17a4,4,0,0,1,.3-.29.86.86,0,0,1,1.17-.11.93.93,0,0,1,0,1.19,7.91,7.91,0,0,1-.52.63c-.58.62-1.2.51-1.52-.28-.44.72-.91,1.42-1.3,2.16a4.54,4.54,0,0,0-.25,1.13l.14.08a2.37,2.37,0,0,0,.54-.23c.54-.41,1.06-.83,1.58-1.26.36-.31.62-.29.85.12a1.18,1.18,0,0,1,.14.37,3.34,3.34,0,0,1-3.05,3.87,2.56,2.56,0,0,1-1.88-.72,1.6,1.6,0,0,0-.11.19,4.49,4.49,0,0,0,.52,4.14,7.43,7.43,0,0,1,.76,1.38,10.78,10.78,0,0,1,.34,1.57l1.77-1.24a1.38,1.38,0,0,1-.78-1.42,8.79,8.79,0,0,1,3.87-6.55,1.21,1.21,0,0,0,.6-1.45c-.06-.27-.15-.52-.22-.78s-.05-.33-.08-.5l.13-.05a1.4,1.4,0,0,1,.55,1,9.81,9.81,0,0,1,.09,1.16h1.51a4.4,4.4,0,0,0,.51,0l.06-.13c.68.91,1.58,1.71,1.38,3.12l1.12-1.22a1.09,1.09,0,0,1-1-.78,3.17,3.17,0,0,1-.07-1.95c.15-.87.28-1.74.41-2.62a1.13,1.13,0,0,0-.39.1c-.59.16-1.19.33-1.79.46-.1,0-.23-.09-.35-.15.06-.09.09-.21.17-.27a.81.81,0,0,0,.32-.81l-.26.17a4.38,4.38,0,0,1-2.08.62.43.43,0,0,1-.3-.14s0-.23.08-.26a1.36,1.36,0,0,0,.67-1.14,3.54,3.54,0,0,1,.94-2c.26-.26.57-.48.86-.72A2,2,0,0,1,23.21,24C24.38,23.24,25.25,23.4,26.37,24.57Zm-18.12-11a2.46,2.46,0,0,0,1.78.24c.69-.17,1.36-.43,2.05-.63a1.34,1.34,0,0,1,.44,0c-.08.13-.12.3-.23.38-1.6,1.23-2,2.94-1.95,4.86,1.33-.29,1.85.78,2.63,1.46l.48-.67a5.4,5.4,0,0,1-.7-.14c-.1,0-.23-.13-.24-.21s.1-.2.17-.28a4.9,4.9,0,0,0,.91-.91c.51-.85.93-1.76,1.4-2.64.16-.3.08-.45-.21-.64a2.33,2.33,0,0,1-.67-3.06.63.63,0,0,0,.1-.69,4.85,4.85,0,0,1,.09-3c0-.1.15-.17.22-.26a1.32,1.32,0,0,1,.25.28c.08.15.12.33.19.48a1.14,1.14,0,0,0,1.34.69,4.88,4.88,0,0,0,3-1.61,5.06,5.06,0,0,1,.84-.76c.07-.06.23,0,.35,0a.83.83,0,0,1-.13.32c-.27.28-.59.51-.84.81a5.32,5.32,0,0,1-3,1.65,1.59,1.59,0,0,1-1.81-.66.73.73,0,0,0-.16-.14l-.1,0,.11,2.38.47-.21a1.66,1.66,0,0,1,2.19.54.95.95,0,0,1-.92,1.51.75.75,0,0,1-.66-.71c0-.09.09-.17.14-.26s.22.09.23.16c0,.26.21.41.44.36s.44-.17.47-.3a.79.79,0,0,0-.17-.6A1.08,1.08,0,0,0,15.34,11c-.53.26-1.07.53-1.11,1.22a2,2,0,0,0,2,2.25L15.87,14c-.21-.34-.16-.47.24-.54a5.45,5.45,0,0,0,2.57-1.39.73.73,0,0,0,.29-.84,3,3,0,0,1-.08-.85c0-.12.12-.24.18-.37a1.4,1.4,0,0,1,.32.18,1.75,1.75,0,0,0,2.11.47c.29-.13.56-.32.85-.46a1.68,1.68,0,0,1,.39-.07c-.06.13-.07.3-.17.38a2.49,2.49,0,0,1-3.13.32s0,0-.1,0a6.91,6.91,0,0,0,.91,2.87,2.22,2.22,0,0,0,.95.82,3.09,3.09,0,0,0,3.28-1A5.13,5.13,0,0,0,24.71,8a2.64,2.64,0,0,1-.15-.29l.08-.07a.77.77,0,0,1,.25.14,5.62,5.62,0,0,1,.65.91,4.51,4.51,0,0,1,.29,2.27c0,.13,0,.33,0,.39.54.47,1,1.13,1.74,1.28a8.73,8.73,0,0,0,3.7-.33s0-.07,0-.08a3.88,3.88,0,0,0-.23-.33,5.23,5.23,0,0,1-.88-4.09c0-.13.19-.24.3-.36a1.81,1.81,0,0,1,.09.44,4.59,4.59,0,0,0,.29,2.74,14,14,0,0,0,.95,1.5c.25.35.23.47-.2.57-.24.07-.49.12-.83.2a9.11,9.11,0,0,0,3.77,1c.63,0,1.27,0,1.9,0a7.74,7.74,0,0,1,1.15.31c-.28-.37-.49-.67-.72-.95a8.69,8.69,0,0,1-1.82-3,9.6,9.6,0,0,1-.22-1.52c0-.1.15-.21.23-.32.07.11.18.21.19.33.05.32,0,.65.1,1a7.65,7.65,0,0,0,1.62,3,22.6,22.6,0,0,1,1.32,2c.06.11,0,.3,0,.45a3.31,3.31,0,0,1-.41-.14l-1.13-.68-.1.11a2.62,2.62,0,0,1,.06,2.75,5,5,0,0,0-.38,1.11,2.88,2.88,0,0,0,.24,2.05q.39-.73.81-1.47c.15-.25.33-.49.5-.74A1.61,1.61,0,0,0,38,16.2c-.05-.08,0-.21,0-.32a1.43,1.43,0,0,1,.36.06,2.51,2.51,0,0,1,.32.25,3.6,3.6,0,0,0,1.85.7,11.7,11.7,0,0,1-1.94-3.46c-.18-.4-.12-.49.32-.55l1-.16a4.64,4.64,0,0,1-2.06-2.25,1.41,1.41,0,0,0-.42-.49c-.26-.21-.25-.36,0-.56a14.47,14.47,0,0,0,2.45-2.79l-.07,0-.16,0a5.94,5.94,0,0,1-3.75,0,17.69,17.69,0,0,1-2.35-1.07,1.89,1.89,0,0,0-1.81-.15c-.32.15-.54,0-.4-.37a9.81,9.81,0,0,1,.64-1.25,6.7,6.7,0,0,1,.4-.58c-1.11,0-2.17,0-3.22.12a7.65,7.65,0,0,0-3.48,1,.42.42,0,0,1-.4-.07,1.72,1.72,0,0,1-.36-.63c-.12-.35-.19-.72-.29-1.09a8.56,8.56,0,0,0-.31,1.38c-.12.68-.25.8-.91.55a14.37,14.37,0,0,1-1.51-.78c.13.25.28.55.41.85.05.09.08.26,0,.32a.41.41,0,0,1-.33,0c-.32-.1-.64-.22-.95-.35a4.59,4.59,0,0,0-2.24-.47,14.59,14.59,0,0,0-1.87.31,7.32,7.32,0,0,0-1.7.6,12,12,0,0,0-2.7,2.37c-1.08,1.08-2,2.37-3.43,3.09a1.08,1.08,0,0,0,1.17.3c.38-.16.73-.39,1.1-.58a2.52,2.52,0,0,1,.39-.12c0,.14.07.31,0,.41a9.62,9.62,0,0,1-.82,1.25A6.89,6.89,0,0,1,8.25,13.59ZM27.4,44.45a3.67,3.67,0,0,1-1-2.56c0-.87.06-1.75.1-2.62l-.12,0c-.2.5-.42,1-.6,1.51a1.25,1.25,0,0,1-1.25.94,1.21,1.21,0,0,1-1.21-1,8.18,8.18,0,0,1-.05-.88l-.11.06A5.12,5.12,0,0,0,21.87,42a7.53,7.53,0,0,0-.46,4.84,3.85,3.85,0,0,0,1.17,1.83c.08-.19.13-.3.18-.4a5.6,5.6,0,0,1,3-3C26.32,45,26.82,44.73,27.4,44.45Zm2.05-13.93c0-.32-.1-.61-.11-.91,0-.11.1-.22.15-.33a1.14,1.14,0,0,1,.25.3c.07.19,0,.46.15.58a3.33,3.33,0,0,0,1.66.84,5.22,5.22,0,0,0-1.48-3.22.9.9,0,0,0-1.24-.23,1.78,1.78,0,0,0-.26.22,3,3,0,0,1-.59.53A1.26,1.26,0,0,1,26.26,28a2.29,2.29,0,0,0-1.94-.79,7.66,7.66,0,0,1-1.25-.12.5.5,0,0,0-.29.07,3.42,3.42,0,0,0-1.42,2c-.11.44-.2.88-.33,1.46L22.46,30c.38-.19.37-.59.47-.93a3.15,3.15,0,0,1,.31-.64l.13.06-.27,2.69c.43-.19.83-.32,1.19-.51.66-.36.62-1.06.72-1.71.32.7.21,1.61,1.17,2,0-.67,1.06-.75.83-1.61a1.1,1.1,0,0,1,.38.36A1.72,1.72,0,0,0,29.45,30.52Zm0,14.88,0,.11c.32,0,.64,0,1,0a6.21,6.21,0,0,0,3.13-1.32,10.18,10.18,0,0,0,3.8-5.86c.1-.36-.13-.43-.38-.52a1.93,1.93,0,0,1-2.49,1.73,6.35,6.35,0,0,1-.76-.13.39.39,0,0,0-.52.23,1.51,1.51,0,0,1-1.12.78,1,1,0,0,0-.72.94,5.07,5.07,0,0,1-.12,1.35A5.37,5.37,0,0,1,29.48,45.4ZM18.85,40.57l-.12.16L17.32,43a.29.29,0,0,0-.05.18,8.05,8.05,0,0,0,.05,1.21,5.86,5.86,0,0,0,2.24,3.23,1.84,1.84,0,0,0,.37.24c.29-.4.55-.74.79-1.09a.8.8,0,0,0,.13-.42,8.64,8.64,0,0,1,1-5.25l.15-.34A3.34,3.34,0,0,1,18.85,40.57Zm-10.08-8a18.46,18.46,0,0,1,1.84.32c.53.13.88.09,1.05-.29a.75.75,0,0,0-.4-1,2.12,2.12,0,0,1-.91-1A1,1,0,0,1,11.41,29a2.58,2.58,0,0,1,.83.14c.64.23,1.25.51,1.88.75a1.48,1.48,0,0,0,.42,0,2.88,2.88,0,0,0,0-.42.8.8,0,0,0-.18-.27,4.32,4.32,0,0,0-3-1.47,2.32,2.32,0,0,0-2.48,2.16A7.48,7.48,0,0,0,9,31.17l-.36.08a1.47,1.47,0,0,0-1.23,2,3.46,3.46,0,0,0,3.28,2.44,2.78,2.78,0,0,0,.89-.31.31.31,0,0,0,.1-.24s-.12-.11-.18-.11a3.48,3.48,0,0,1-2.18-1.22A1.65,1.65,0,0,1,8.77,32.56Zm9.91,6.56a2.1,2.1,0,0,0,1.8.93,3.14,3.14,0,0,0,2.91-2.19,1.88,1.88,0,0,0-.38-2,1.68,1.68,0,0,0-1.91-.4,4.83,4.83,0,0,0-1.3.71,9.7,9.7,0,0,0-3.3,5.7,1.51,1.51,0,0,0,0,.56.4.4,0,0,0,.26.26c.09,0,.24-.09.3-.18a2.77,2.77,0,0,0,.26-.55Zm8.86-1.76.12.1a3.13,3.13,0,0,1,0,.43c-.05.65-.1,1.29-.17,1.94A7.7,7.7,0,0,0,27.67,43,1.51,1.51,0,0,0,29,44.19a1.27,1.27,0,0,0,.74-.27c.16-.11.13-.28,0-.44a2.52,2.52,0,0,1-.59-.79,5.83,5.83,0,0,1-.2-2.56A19.13,19.13,0,0,0,29,37.51a1.36,1.36,0,0,0-2.12-1.1,15.1,15.1,0,0,0-1.38,1c-.09.07-.24.18-.31.15-.3-.13-.37.07-.43.27-.22.72-.44,1.44-.63,2.17-.12.45,0,.79.36.87s.59-.09.71-.58a4.52,4.52,0,0,1,1.52-2.43A6.91,6.91,0,0,1,27.54,37.36ZM40.4,35.57a2.12,2.12,0,0,0,.4.24,1.45,1.45,0,0,0,.46.14c.54,0,.86-.32.62-.81a2.16,2.16,0,0,0-.71-.79,1.36,1.36,0,0,1-.62-1.09A4.16,4.16,0,0,0,40,32c-.05-.1-.3-.09-.46-.14a1.65,1.65,0,0,0,0,.38c0,.38.06.76.09,1.21l-.91-.19c-1.7-.27-3,1.06-2.34,2.55a3,3,0,0,0,.81,1.09,1.71,1.71,0,0,0,2.6-.28A9.07,9.07,0,0,0,40.4,35.57ZM32.29,36c-.14-.38-.23-.69-.37-1a.44.44,0,0,0-.31-.2c-.09,0-.19.13-.26.22a.69.69,0,0,0-.09.31c0,1.2,0,2.41,0,3.61a.56.56,0,0,0,.56.54.58.58,0,0,0,.65-.43,3,3,0,0,0,.14-.59c0-.24.17-.31.4-.26s.75.15,1.12.2a8.54,8.54,0,0,0,1.12.13.76.76,0,0,0,.8-.56c.07-.42-.22-.61-.55-.74A4.23,4.23,0,0,0,35,37.1l-1.58-.29c.26-.39.48-.74.72-1.07.37-.54.77-1.05,1.13-1.59a.64.64,0,0,0-.11-.91c-.35-.23-.62-.06-.84.22-.52.64-1,1.28-1.54,1.93C32.58,35.58,32.46,35.78,32.29,36ZM43.46,33.3a6.92,6.92,0,0,0-.22-.74c-.15-.36-.32-.72-.5-1.07a20.48,20.48,0,0,0-2.37-3.91.71.71,0,0,0-1-.19.68.68,0,0,0-.12.94l.18.32L41.88,33a1.74,1.74,0,0,0,.48.64.9.9,0,0,0,.71.13C43.24,33.74,43.35,33.46,43.46,33.3Zm-6.23-8.8,0,0c.17.75.31,1.5.51,2.24a.44.44,0,0,0,.81.16,1.09,1.09,0,0,0,.28-.47,14.82,14.82,0,0,0,.32-2.07,8.57,8.57,0,0,1,.83-3.8,1.56,1.56,0,0,0,.2-.53c0-.25.08-.62,0-.74a1.13,1.13,0,0,0-.81-.17,4.13,4.13,0,0,0-2,.94.46.46,0,0,0-.18.32,4.81,4.81,0,0,0,.16,1.27,3.92,3.92,0,0,1,0,2.2C37.31,24.07,37.27,24.29,37.23,24.5ZM24.21,15A10.6,10.6,0,0,1,19,18.13a2.24,2.24,0,0,0,.81.33,6.32,6.32,0,0,0,5.67-2,1.64,1.64,0,0,0,.42-1.25C25.32,15.37,24.71,15.66,24.21,15ZM12.67,21.35c0-.27.05-.51.06-.75a.48.48,0,0,0-.08-.32,15.73,15.73,0,0,0-1.23-1.22A.79.79,0,0,0,10.37,19a1.39,1.39,0,0,0-.63,1.62c.24.69.54,1.35.82,2a4.63,4.63,0,0,1,.39,3,3.56,3.56,0,0,0-.07.8c0,.28.11.44.44.43a2.63,2.63,0,0,1,.84.12c.36.12.54,0,.67-.34-.82,0-1.26-.21-1.25-.79a6.69,6.69,0,0,0-.6-2.93,1.65,1.65,0,0,1,0-1.07C11.28,21,11.83,20.88,12.67,21.35Zm.62-2.58A5.36,5.36,0,0,0,18,15.94l-1.34-1a.4.4,0,0,0-.18-.07h-1A10.66,10.66,0,0,1,13.29,18.77ZM25,33.93l.09,0c.08-.13.16-.27.25-.39.28-.38.39-.39.74-.09.05,0,.16.08.21.05.51-.28,1,.1,1.49.07a1,1,0,0,0,.34-.09l.62-.26V31.12l-1.57-.79-.31.2H27c.22.5.46,1,.65,1.51a3.26,3.26,0,0,1,.19.82c0,.08-.09.17-.14.26a1.07,1.07,0,0,1-.22-.2c0-.06,0-.15-.06-.23-.22-.6-.45-1.19-.67-1.79l-.11.05c-.05.5-.2.59-.65.34s-.65-.49-1-.76Zm-7-.41-.2,0c-.08.13-.17.26-.24.39a3.84,3.84,0,0,1-1.91,1.9A.75.75,0,0,1,14.44,35a4.49,4.49,0,0,1,.34-1.39,4.19,4.19,0,0,1,.58-.86c-.3-.22-.54-.08-.77.06A2.56,2.56,0,0,0,13.37,35,1.84,1.84,0,0,0,16,36.89a3.16,3.16,0,0,0,2-2.53A4.7,4.7,0,0,0,17.93,33.52ZM16.41,13.9a3,3,0,0,0,2.08,1.59,2.34,2.34,0,0,0,2.12-.72,4.75,4.75,0,0,1-1.45-2.52,13.19,13.19,0,0,1-1.28.95C17.42,13.47,16.91,13.66,16.41,13.9ZM29.26,35.8c.49-1,0-2.13-.08-3.24,0,.53,0,1,0,1.58-.06.89-.45,1.1-1.22.65a1.49,1.49,0,0,0-1.28-.14l-.69.24c-.66.24-.9.17-1.31-.43a1.84,1.84,0,0,0,0,.34c.24,1.17.52,1.24,1.39,1a4.6,4.6,0,0,1,1.53-.35A7.6,7.6,0,0,1,29.26,35.8Zm14.18.49c-.65,0-1.08.73-1.06,1.26a1.13,1.13,0,0,0,.47.78c.17.11.54,0,.78-.07a1.14,1.14,0,0,0,.62-1A.8.8,0,0,0,43.44,36.29ZM13,22.19a4.36,4.36,0,0,1-.26.77A1.55,1.55,0,0,0,13,24.79a2.63,2.63,0,0,0,.66.37C14.16,23.81,14,22.94,13,22.19Zm15.72,4.95A2.45,2.45,0,0,0,30,26,.89.89,0,0,0,29.76,25a.55.55,0,0,0-.76-.15,1.2,1.2,0,0,0-.49.71A9.94,9.94,0,0,0,28.73,27.14Zm9.82,11.08c-.65-.11-.65-.11-.82.52,0,.11-.06.23-.1.35a1.11,1.11,0,0,0,.54,1.37ZM17,32a2.4,2.4,0,0,0,1.46-1.48c0-.26-.18-.4-.39-.24A2.61,2.61,0,0,0,17,32ZM30.47,43.7l.71-2-.12,0C30.66,42.22,29.76,42.65,30.47,43.7ZM25.76,33.52l-.11,0a3.37,3.37,0,0,0-.38.55,1.45,1.45,0,0,0-.05.47c.16,0,.35.08.48,0s.15-.25.15-.39A4.63,4.63,0,0,0,25.76,33.52Zm14.17-2.14L38.86,29.6a15.35,15.35,0,0,0,.49,1.54C39.44,31.45,39.6,31.51,39.93,31.38ZM28.41,33.65l-.13,0a1.73,1.73,0,0,0-.18.59c0,.12.2.25.33.34s.2,0,.2,0a1.4,1.4,0,0,0,0-.41A3.9,3.9,0,0,0,28.41,33.65Zm-2.13.64.55-.13-.07-.48C26.15,33.78,26.15,33.78,26.28,34.29Zm9.36,1.93-.23-.82L35,36Zm-8-2,.14-.11c-.07-.11-.12-.29-.21-.31s-.26.07-.39.11Z" transform="translate(-6.41 -1.18)"/><path d="M33.05,19.08c.24.22.44.39.63.58s.33.5,0,.87a2.47,2.47,0,0,1-1.63.64,4.08,4.08,0,0,1-2.56-.41c-.55-.28-.64-.58-.3-1.09a5.94,5.94,0,0,1,.48-.59,4.71,4.71,0,0,1-2.28-3,2.43,2.43,0,0,1,0-.54l1.29.72.07-.11c-.15-.23-.31-.46-.45-.71-.05-.08-.07-.25,0-.28a.44.44,0,0,1,.32,0c.43.1.85.26,1.29.33a4.62,4.62,0,0,1,2.56,1.38A3.61,3.61,0,0,0,34,17.8a9.84,9.84,0,0,1,1.24.47c.12.05.2.2.3.31-.14.06-.31.2-.41.16a2.57,2.57,0,0,0-1.62.17A4.51,4.51,0,0,0,33.05,19.08ZM28,16.46a3.54,3.54,0,0,0,3.89,2.48c.7-.13,1.38-.4,2.13-.62a.88.88,0,0,0-.19-.13A4,4,0,0,1,32,17,4.44,4.44,0,0,0,29,15.76a3.54,3.54,0,0,1,.29.4c.06.12.09.26.14.39a1.32,1.32,0,0,1-.44.14C28.65,16.64,28.33,16.54,28,16.46Z" transform="translate(-6.41 -1.18)"/><path d="M32.49,23.12a2.62,2.62,0,0,0,1.77-2.44c.4.38.38.9,0,1.53A1.56,1.56,0,0,1,32.49,23.12Z" transform="translate(-6.41 -1.18)"/><path d="M18.58,20.19c.42.91.79,1.87,1.94,2.17a.89.89,0,0,1-1.09-.11A2.12,2.12,0,0,1,18.58,20.19Z" transform="translate(-6.41 -1.18)"/><path d="M19.24,38.39a4.74,4.74,0,0,1,2.15-1.84.94.94,0,0,1,.74.07c.27.2.19.54.07.83A2,2,0,0,1,20,38.59Z" transform="translate(-6.41 -1.18)"/><path d="M39.31,34.85a7,7,0,0,1-.35.78c-.25.44-.58.57-.93.42s-.84-.77-.69-1.15a.86.86,0,0,1,.5-.39A1.94,1.94,0,0,1,39.31,34.85Z" transform="translate(-6.41 -1.18)"/><path d="M37.41,24.75c.14-.26.26-.54.42-.78a4,4,0,0,1,.46-.46c.35-.35.35-.46,0-.8l0,0a1.4,1.4,0,0,1,.19-2.31.76.76,0,0,1,.65-.08c.12.07.17.42.12.61a8.93,8.93,0,0,1-.41,1c-.12.31-.22.6.07.9a.5.5,0,0,1,0,.73.89.89,0,0,0-.21.74,10.65,10.65,0,0,1,0,1.13.52.52,0,0,1-.51.53c-.34,0-.47-.24-.55-.5a3.94,3.94,0,0,1-.08-.6Z" transform="translate(-6.41 -1.18)"/></svg>