<svg id="Layer_1" data-name="Layer 1" xmlns="http://www.w3.org/2000/svg" viewBox="0 0 43.04 10.85"><defs><style>.cls-1{fill:#231f20;}</style></defs><title>eureka</title><path class="cls-1" d="M4.79,20.13a1.21,1.21,0,0,0-.21-.85A1.3,1.3,0,0,0,3.73,19v-.23H10l.1,1.76H9.78a1.79,1.79,0,0,0-.41-1,1.52,1.52,0,0,0-1-.26H6.51a.6.6,0,0,0-.39.09.78.78,0,0,0-.09.48V22a.66.66,0,0,0,0,.31c0,.05.11.07.25.07H7.79a1.66,1.66,0,0,0,1.06-.23,1.32,1.32,0,0,0,.28-.89h.32V24H9.13a1.43,1.43,0,0,0-.29-.93,1.64,1.64,0,0,0-1-.23H6.32a.33.33,0,0,0-.23.06S6,23,6,23.21v2.38a1.06,1.06,0,0,0,.1.58c.06.09.19.13.38.13H8.2A2.6,2.6,0,0,0,9.61,26a2.91,2.91,0,0,0,.84-1.3l.27.14-.57,1.95H3.73v-.25a1.36,1.36,0,0,0,.86-.21,1.26,1.26,0,0,0,.2-.85Z" transform="translate(-3.73 -18.64)"/><path class="cls-1" d="M11.1,22.93h-.27v-.1a.66.66,0,0,1,0-.15,1.55,1.55,0,0,1,.34-1.09,1.28,1.28,0,0,1,1-.37,1.22,1.22,0,0,1,1,.38,1.63,1.63,0,0,1,.32,1.11c0,.16,0,.49-.06,1s-.07.93-.07,1.27a1.69,1.69,0,0,0,.32,1.13,1.22,1.22,0,0,0,1,.36,1.65,1.65,0,0,0,1.29-.56,2.05,2.05,0,0,0,.51-1.45A3.82,3.82,0,0,0,16,23a3.61,3.61,0,0,1-.4-1.15.56.56,0,0,1,.15-.43.64.64,0,0,1,.46-.15.69.69,0,0,1,.65.45,3.76,3.76,0,0,1,.2,1.41,4.64,4.64,0,0,1-.74,2.82,2.44,2.44,0,0,1-2.08,1,2,2,0,0,1-1.52-.58,2.26,2.26,0,0,1-.55-1.61c0-.29,0-.7.08-1.22a10.34,10.34,0,0,0,.08-1.11.79.79,0,0,0-.13-.5.46.46,0,0,0-.4-.17.61.61,0,0,0-.53.25,1.31,1.31,0,0,0-.18.76v.1A.49.49,0,0,1,11.1,22.93Z" transform="translate(-3.73 -18.64)"/><path class="cls-1" d="M18.58,24a3.22,3.22,0,0,1,.72-2.22,2.56,2.56,0,0,1,2-.81,2.39,2.39,0,0,1,1.87.8,3.14,3.14,0,0,1,.7,2.14,3.32,3.32,0,0,1-.72,2.21,2.26,2.26,0,0,1-1.82.86,2.3,2.3,0,0,1-.95-.21,2.18,2.18,0,0,1-.78-.59v3.34h-1Zm2.5-2.69a1.2,1.2,0,0,0-1.06.59,3.17,3.17,0,0,0-.37,1.68,4.5,4.5,0,0,0,.47,2.19,1.4,1.4,0,0,0,1.22.85A1.2,1.2,0,0,0,22.43,26a3,3,0,0,0,.35-1.65,4.6,4.6,0,0,0-.47-2.26A1.38,1.38,0,0,0,21.08,21.27Z" transform="translate(-3.73 -18.64)"/><path class="cls-1" d="M26.29,23.87a1.7,1.7,0,0,1-.82-.49,1.15,1.15,0,0,1-.28-.78,1.19,1.19,0,0,1,.53-1,2.29,2.29,0,0,1,1.39-.39,2.67,2.67,0,0,1,1.26.27c.35.18.52.4.52.66a.41.41,0,0,1-.12.31.48.48,0,0,1-.32.11.51.51,0,0,1-.32-.1,1.08,1.08,0,0,1-.26-.35,1,1,0,0,0-.34-.41.85.85,0,0,0-.48-.12.68.68,0,0,0-.59.27,1.24,1.24,0,0,0-.21.77,1.29,1.29,0,0,0,.21.78.67.67,0,0,0,.56.29,1.9,1.9,0,0,0,.43-.08,1.78,1.78,0,0,1,.41-.08.39.39,0,0,1,.28.1.35.35,0,0,1,.11.26.42.42,0,0,1-.1.29.39.39,0,0,1-.29.1,1.25,1.25,0,0,1-.41-.11,1.2,1.2,0,0,0-.41-.11.7.7,0,0,0-.6.3,1.4,1.4,0,0,0-.21.82,1.28,1.28,0,0,0,.32.92,1.08,1.08,0,0,0,.85.36,1.26,1.26,0,0,0,.83-.28,2.26,2.26,0,0,0,.62-.85l.33.16a2.35,2.35,0,0,1-.83,1.09,2.21,2.21,0,0,1-1.29.36,2.13,2.13,0,0,1-1.41-.45,1.47,1.47,0,0,1-.53-1.17,1.35,1.35,0,0,1,.3-.89A1.75,1.75,0,0,1,26.29,23.87Z" transform="translate(-3.73 -18.64)"/><path class="cls-1" d="M29.86,21.77v-.23l1-.27L31.8,21v2.41a.27.27,0,0,0,0,.13.05.05,0,0,0,.05,0,.22.22,0,0,0,.1,0,.39.39,0,0,0,.1-.08l.62-.69a9.82,9.82,0,0,1,1.48-1.43,1.74,1.74,0,0,1,1-.33.91.91,0,0,1,.54.14.42.42,0,0,1,.22.36.35.35,0,0,1-.13.27.55.55,0,0,1-.34.11,1.08,1.08,0,0,1-.37-.1,1,1,0,0,0-.34-.09,1,1,0,0,0-.63.25,7.34,7.34,0,0,0-.94.94l-.37.44,2,2.51a2.82,2.82,0,0,0,.6.6,1,1,0,0,0,.56.19h0v.23H33.24v-.23a1.66,1.66,0,0,0,.43-.06c.09,0,.14-.07.14-.13a.45.45,0,0,0-.06-.19l-.18-.28L32,24s-.05-.06-.08-.07a.16.16,0,0,0-.09,0s0,0,0,0a.31.31,0,0,0,0,.11V26.8H30.74V22.56a1.16,1.16,0,0,0-.13-.66.64.64,0,0,0-.49-.15h-.26Z" transform="translate(-3.73 -18.64)"/><path class="cls-1" d="M43.17,21.37l-.46,1.8c-.09.32-.18.62-.29.92a7.36,7.36,0,0,1-.35.86,2.7,2.7,0,0,0,.44.79A.65.65,0,0,0,43,26a.42.42,0,0,0,.32-.15.73.73,0,0,0,.17-.41h.23v.13a2.06,2.06,0,0,1-.19,1,.61.61,0,0,1-.57.32.73.73,0,0,1-.64-.32,3.64,3.64,0,0,1-.46-1.21,3.45,3.45,0,0,1-1,1.17,2.4,2.4,0,0,1-1.32.36,2.48,2.48,0,0,1-1.91-.82A2.89,2.89,0,0,1,36.83,24a2.8,2.8,0,0,1,.79-2,2.45,2.45,0,0,1,1.86-.84,2,2,0,0,1,1.38.5,2.84,2.84,0,0,1,.75,1.48L42,21.37Zm-1.72,2.54a4.61,4.61,0,0,0-.69-1.79,1.34,1.34,0,0,0-2.24.12A3.33,3.33,0,0,0,38.1,24a3.64,3.64,0,0,0,.4,1.89,1.34,1.34,0,0,0,2.25.08A6.33,6.33,0,0,0,41.45,23.91Z" transform="translate(-3.73 -18.64)"/><path class="cls-1" d="M45.35,26.3a.7.7,0,0,1,.21-.5.67.67,0,0,1,.49-.21.71.71,0,0,1,.51.21.69.69,0,0,1,.21.5.64.64,0,0,1-.22.49.69.69,0,0,1-.5.21.66.66,0,0,1-.48-.21A.67.67,0,0,1,45.35,26.3Zm.81-1.63h-.24L45.42,20a2.3,2.3,0,0,1,0-.28c0-.1,0-.2,0-.3a.92.92,0,0,1,.17-.59.67.67,0,0,1,.52-.2.66.66,0,0,1,.51.2.87.87,0,0,1,.18.59c0,.11,0,.21,0,.3l0,.28Z" transform="translate(-3.73 -18.64)"/></svg>