<svg id="Layer_1" data-name="Layer 1" xmlns="http://www.w3.org/2000/svg" viewBox="0 0 39.88 47.79"><defs><style>.cls-1{fill:#231f20;}</style></defs><title>mu</title><path class="cls-1" d="M15.08,23.1c0,3.41.38,5.69,1.14,6.87s2.13,1.75,4.12,1.75q4.74,0,7.83-5.83t3.09-14.84V1.58h7.59V25.41a11.27,11.27,0,0,0,.77,4.79A2.49,2.49,0,0,0,42,31.72a2.91,2.91,0,0,0,2.64-1.51,8.79,8.79,0,0,0,.9-4.45v-1h1.73c0,.19,0,.4.06.62s0,.55,0,1a9.14,9.14,0,0,1-1.95,6.25,6.91,6.91,0,0,1-5.48,2.22,7,7,0,0,1-6.23-3.1q-2.09-3.1-2.13-9.38-1.89,6.45-5,9.47a11.06,11.06,0,0,1-8,3,9.21,9.21,0,0,1-6-1.9,10,10,0,0,1-3.3-5.58,20,20,0,0,0-.08,2.06A24.66,24.66,0,0,0,11.8,39.64c1.76,3.77,2.63,6,2.63,6.69a2.84,2.84,0,0,1-.92,2.23,3.72,3.72,0,0,1-2.53.82,3.07,3.07,0,0,1-2.71-1.19,7,7,0,0,1-.83-3.88c0-.43.06-1.83.17-4.2s.16-4.54.16-6.48q0-2.61-.12-7.37t-.13-6.88V1.58h7.56Z" transform="translate(-7.44 -1.58)"/></svg>